<svg width="272" height="50" viewBox="0 0 272 50" fill="none" xmlns="http://www.w3.org/2000/svg">
<rect x="1.5" y="1.5" width="269" height="47" rx="23.5" stroke="white" stroke-width="3"/>
<path d="M36.688 30.192C35.5467 30.192 34.512 29.9467 33.584 29.456C32.6667 28.9547 31.9413 28.2667 31.408 27.392C30.8853 26.5067 30.624 25.5093 30.624 24.4C30.624 23.2907 30.8853 22.2987 31.408 21.424C31.9413 20.5387 32.6667 19.8507 33.584 19.36C34.512 18.8587 35.552 18.608 36.704 18.608C37.6747 18.608 38.5493 18.7787 39.328 19.12C40.1173 19.4613 40.7787 19.952 41.312 20.592L39.648 22.128C38.8907 21.2533 37.952 20.816 36.832 20.816C36.1387 20.816 35.52 20.9707 34.976 21.28C34.432 21.5787 34.0053 22 33.696 22.544C33.3973 23.088 33.248 23.7067 33.248 24.4C33.248 25.0933 33.3973 25.712 33.696 26.256C34.0053 26.8 34.432 27.2267 34.976 27.536C35.52 27.8347 36.1387 27.984 36.832 27.984C37.952 27.984 38.8907 27.5413 39.648 26.656L41.312 28.192C40.7787 28.8427 40.1173 29.3387 39.328 29.68C38.5387 30.0213 37.6587 30.192 36.688 30.192ZM50.7614 24.16C51.444 24.3627 51.9667 24.6933 52.3294 25.152C52.692 25.6107 52.8734 26.176 52.8734 26.848C52.8734 27.84 52.4947 28.6133 51.7374 29.168C50.9907 29.7227 49.9187 30 48.5214 30H43.0014V18.8H48.2174C49.5187 18.8 50.532 19.0507 51.2574 19.552C51.9827 20.0533 52.3454 20.768 52.3454 21.696C52.3454 22.2507 52.2067 22.7413 51.9294 23.168C51.652 23.584 51.2627 23.9147 50.7614 24.16ZM45.5774 23.44H47.9934C48.5587 23.44 48.9854 23.328 49.2734 23.104C49.5614 22.8693 49.7054 22.528 49.7054 22.08C49.7054 21.6427 49.556 21.3067 49.2574 21.072C48.9694 20.8373 48.548 20.72 47.9934 20.72H45.5774V23.44ZM48.4254 28.08C49.6414 28.08 50.2494 27.6 50.2494 26.64C50.2494 25.712 49.6414 25.248 48.4254 25.248H45.5774V28.08H48.4254ZM63.711 18.8V30H61.151V27.024H58.783L56.799 30H54.063L56.399 26.624C55.6417 26.3147 55.0603 25.8507 54.655 25.232C54.2497 24.6027 54.047 23.8507 54.047 22.976C54.047 22.112 54.2443 21.3707 54.639 20.752C55.0337 20.1227 55.5937 19.6427 56.319 19.312C57.0443 18.9707 57.8977 18.8 58.879 18.8H63.711ZM58.943 20.912C58.207 20.912 57.6417 21.0827 57.247 21.424C56.863 21.7653 56.671 22.272 56.671 22.944C56.671 23.5947 56.8577 24.096 57.231 24.448C57.6043 24.8 58.1537 24.976 58.879 24.976H61.151V20.912H58.943ZM72.885 24.16C73.5357 24.384 74.0423 24.736 74.405 25.216C74.7783 25.6853 74.965 26.2347 74.965 26.864C74.965 27.5467 74.741 28.1387 74.293 28.64C73.845 29.1413 73.237 29.5253 72.469 29.792C71.7117 30.0587 70.8797 30.192 69.973 30.192C69.205 30.192 68.437 30.096 67.669 29.904C66.9117 29.712 66.1917 29.4187 65.509 29.024L66.309 27.168C66.7997 27.4667 67.3383 27.696 67.925 27.856C68.5223 28.0053 69.1037 28.08 69.669 28.08C70.437 28.08 71.0717 27.9413 71.573 27.664C72.085 27.3867 72.341 26.9973 72.341 26.496C72.341 26.08 72.165 25.7653 71.813 25.552C71.4717 25.3387 71.0023 25.232 70.405 25.232H67.669V23.28H70.213C70.7357 23.28 71.141 23.1733 71.429 22.96C71.7277 22.7467 71.877 22.4533 71.877 22.08C71.877 21.6427 71.6637 21.3013 71.237 21.056C70.821 20.8107 70.2823 20.688 69.621 20.688C69.1303 20.688 68.6237 20.7573 68.101 20.896C67.5783 21.024 67.0823 21.2213 66.613 21.488L65.829 19.472C67.013 18.864 68.293 18.56 69.669 18.56C70.5437 18.56 71.349 18.688 72.085 18.944C72.821 19.2 73.4077 19.5733 73.845 20.064C74.2823 20.5547 74.501 21.1253 74.501 21.776C74.501 22.3093 74.357 22.784 74.069 23.2C73.781 23.616 73.3863 23.936 72.885 24.16ZM84.601 27.6H79.401L78.409 30H75.753L80.745 18.8H83.305L88.313 30H85.593L84.601 27.6ZM83.785 25.632L82.009 21.344L80.233 25.632H83.785ZM97.7958 20.912H94.2118V30H91.6518V20.912H88.0838V18.8H97.7958V20.912ZM104.847 22.48C106.213 22.48 107.258 22.784 107.983 23.392C108.719 24 109.087 24.9013 109.087 26.096C109.087 27.3653 108.682 28.336 107.871 29.008C107.071 29.6693 105.941 30 104.479 30H99.4233V18.8H101.999V22.48H104.847ZM104.335 28.08C105.007 28.08 105.53 27.9147 105.903 27.584C106.287 27.2533 106.479 26.7733 106.479 26.144C106.479 24.9813 105.765 24.4 104.335 24.4H101.999V28.08H104.335ZM116.251 30.192C115.109 30.192 114.075 29.9467 113.147 29.456C112.229 28.9547 111.504 28.2667 110.971 27.392C110.448 26.5067 110.187 25.5093 110.187 24.4C110.187 23.2907 110.448 22.2987 110.971 21.424C111.504 20.5387 112.229 19.8507 113.147 19.36C114.075 18.8587 115.115 18.608 116.267 18.608C117.237 18.608 118.112 18.7787 118.891 19.12C119.68 19.4613 120.341 19.952 120.875 20.592L119.211 22.128C118.453 21.2533 117.515 20.816 116.395 20.816C115.701 20.816 115.083 20.9707 114.539 21.28C113.995 21.5787 113.568 22 113.259 22.544C112.96 23.088 112.811 23.7067 112.811 24.4C112.811 25.0933 112.96 25.712 113.259 26.256C113.568 26.8 113.995 27.2267 114.539 27.536C115.083 27.8347 115.701 27.984 116.395 27.984C117.515 27.984 118.453 27.5413 119.211 26.656L120.875 28.192C120.341 28.8427 119.68 29.3387 118.891 29.68C118.101 30.0213 117.221 30.192 116.251 30.192ZM131.289 18.8V30H128.729V27.024H126.361L124.377 30H121.641L123.977 26.624C123.22 26.3147 122.638 25.8507 122.233 25.232C121.828 24.6027 121.625 23.8507 121.625 22.976C121.625 22.112 121.822 21.3707 122.217 20.752C122.612 20.1227 123.172 19.6427 123.897 19.312C124.622 18.9707 125.476 18.8 126.457 18.8H131.289ZM126.521 20.912C125.785 20.912 125.22 21.0827 124.825 21.424C124.441 21.7653 124.249 22.272 124.249 22.944C124.249 23.5947 124.436 24.096 124.809 24.448C125.182 24.8 125.732 24.976 126.457 24.976H128.729V20.912H126.521ZM146.386 24.16C147.069 24.3627 147.592 24.6933 147.954 25.152C148.317 25.6107 148.498 26.176 148.498 26.848C148.498 27.84 148.12 28.6133 147.362 29.168C146.616 29.7227 145.544 30 144.146 30H138.626V18.8H143.842C145.144 18.8 146.157 19.0507 146.882 19.552C147.608 20.0533 147.97 20.768 147.97 21.696C147.97 22.2507 147.832 22.7413 147.554 23.168C147.277 23.584 146.888 23.9147 146.386 24.16ZM141.202 23.44H143.618C144.184 23.44 144.61 23.328 144.898 23.104C145.186 22.8693 145.33 22.528 145.33 22.08C145.33 21.6427 145.181 21.3067 144.882 21.072C144.594 20.8373 144.173 20.72 143.618 20.72H141.202V23.44ZM144.05 28.08C145.266 28.08 145.874 27.6 145.874 26.64C145.874 25.712 145.266 25.248 144.05 25.248H141.202V28.08H144.05ZM154.884 25.488H153.092V30H150.516V18.8H153.092V23.328H154.948L157.892 18.8H160.628L156.964 24.208L160.74 30H157.796L154.884 25.488ZM167.252 30.192C166.089 30.192 165.038 29.9413 164.1 29.44C163.172 28.9387 162.441 28.2507 161.908 27.376C161.385 26.4907 161.124 25.4987 161.124 24.4C161.124 23.3013 161.385 22.3147 161.908 21.44C162.441 20.5547 163.172 19.8613 164.1 19.36C165.038 18.8587 166.089 18.608 167.252 18.608C168.414 18.608 169.46 18.8587 170.388 19.36C171.316 19.8613 172.046 20.5547 172.58 21.44C173.113 22.3147 173.38 23.3013 173.38 24.4C173.38 25.4987 173.113 26.4907 172.58 27.376C172.046 28.2507 171.316 28.9387 170.388 29.44C169.46 29.9413 168.414 30.192 167.252 30.192ZM167.252 27.984C167.913 27.984 168.51 27.8347 169.044 27.536C169.577 27.2267 169.993 26.8 170.292 26.256C170.601 25.712 170.756 25.0933 170.756 24.4C170.756 23.7067 170.601 23.088 170.292 22.544C169.993 22 169.577 21.5787 169.044 21.28C168.51 20.9707 167.913 20.816 167.252 20.816C166.59 20.816 165.993 20.9707 165.46 21.28C164.926 21.5787 164.505 22 164.196 22.544C163.897 23.088 163.748 23.7067 163.748 24.4C163.748 25.0933 163.897 25.712 164.196 26.256C164.505 26.8 164.926 27.2267 165.46 27.536C165.993 27.8347 166.59 27.984 167.252 27.984ZM185.648 18.8V30H183.056V25.408H177.968V30H175.376V18.8H177.968V23.216H183.056V18.8H185.648ZM197.015 20.912H193.431V30H190.871V20.912H187.303V18.8H197.015V20.912ZM205.664 27.6H200.464L199.472 30H196.816L201.808 18.8H204.368L209.376 30H206.656L205.664 27.6ZM204.848 25.632L203.072 21.344L201.296 25.632H204.848ZM215.197 25.488H213.405V30H210.829V18.8H213.405V23.328H215.261L218.205 18.8H220.941L217.277 24.208L221.053 30H218.109L215.197 25.488ZM230.702 20.912H227.118V30H224.558V20.912H220.99V18.8H230.702V20.912ZM241.002 27.92V30H232.33V18.8H240.794V20.88H234.906V23.312H240.106V25.328H234.906V27.92H241.002Z" fill="white"/>
</svg>
